<?xml version="1.0" standalone="no"?><!DOCTYPE svg PUBLIC "-//W3C//DTD SVG 1.1//EN" "http://www.w3.org/Graphics/SVG/1.1/DTD/svg11.dtd"><svg t="1692982841311" class="icon" viewBox="0 0 1024 1024" version="1.1" xmlns="http://www.w3.org/2000/svg" p-id="7499" xmlns:xlink="http://www.w3.org/1999/xlink" width="200" height="200"><path d="M591.8 326.8l-300.2-38.9c-10.7-1.4-20.6 5.7-22.9 16.2l-65.3 313.4c-10.8 27.9-19.9 31.3-51.2 31.4l-11.9-2.4c-24-4.8-38.7-25.5-34.2-48.1s26.1-36 50.1-31.2l13.9 2.8c2.8 0.6 5.5 1.4 8.2 2.4 10.6 4.1 22.6-1.2 26.7-11.8 4.1-10.6-1.2-22.6-11.8-26.7-4.9-1.9-9.9-3.3-15-4.4l-13.9-2.8c-46.2-9.3-89.6 18.6-98.6 63.5s20.3 87.3 66.6 96.6l13.9 2.8c1.6 0.3 3.1 0.4 4.9 0.4 44.8 0 72.7-9.6 91.5-59.5 0.1-0.1 0.1-0.3 0.1-0.4 0.1-0.4 0.3-0.8 0.4-1.2 0.1-0.3 0.2-0.6 0.2-0.8 0.1-0.2 0.1-0.4 0.2-0.6l61.7-296.3 259.4 33.7-55.8 284.4v0.1l-1.9 9.9c-5.9 29.5-41.8 31-51.8 30.8l-12.2-2.4c-24-4.8-38.7-25.5-34.2-48.1s26.2-36 50.1-31.2l13.9 2.8c1.9 0.4 3.8 0.9 5.7 1.5 10.9 3.5 22.5-2.5 26-13.3s-2.5-22.5-13.3-26c-3.3-1.1-6.8-2-10.2-2.7l-13.9-2.8c-46.3-9.3-89.6 18.6-98.6 63.5s20.3 87.3 66.6 96.6l13.9 2.8c1.1 0.2 2.1 0.3 3.2 0.4 1.9 0.1 3.7 0.1 5.6 0.1 47 0 81.9-24.7 89.9-64v-0.1l62-316.1c1.1-5.6-0.2-11.4-3.5-16-3.5-4.5-8.6-7.6-14.3-8.3zM845 238.2c-8.1-8.1-21.1-8.1-29.2 0-8.1 8-8.1 21.1 0 29.2 66.6 66.6 103.3 155.3 103.3 249.8S882.4 700.4 815.8 767c-8.1 8-8.1 21.1 0 29.2 4 4 9.3 6 14.6 6s10.6-2 14.6-6c74.4-74.4 115.4-173.4 115.4-278.9 0-105.7-41-204.7-115.4-279.1z" fill="#c4a7e7" p-id="7500"></path><path d="M767 316.2c-8.1-8.1-21.1-8.1-29.2 0-8.1 8-8.1 21.1 0 29.2 94.7 94.7 94.7 248.8 0 343.5-8.1 8.1-8.1 21.1 0 29.2 4 4 9.3 6 14.6 6 5.3 0 10.6-2 14.6-6 110.7-110.9 110.7-291.1 0-401.9z" fill="#c4a7e7" p-id="7501"></path><path d="M688.9 394.3c-8.1-8.1-21.1-8.1-29.2 0-8.1 8.1-8.1 21.1 0 29.2 25 25 38.8 58.3 38.8 93.7s-13.8 68.7-38.8 93.7c-8.1 8-8.1 21.1 0 29.2 4 4 9.3 6 14.6 6s10.6-2 14.6-6c32.8-32.8 50.9-76.4 50.9-122.9s-18.1-90.1-50.9-122.9z" fill="#c4a7e7" p-id="7502"></path></svg>